<svg xmlns="http://www.w3.org/2000/svg" xmlns:xlink="http://www.w3.org/1999/xlink" version="1.1" width="1000" height="1000" viewBox="0 0 1000 1000" xml:space="preserve">
<desc>Created with Fabric.js 3.5.0</desc>
<defs>
</defs>
<rect x="0" y="0" width="100%" height="100%" fill="#ffffff"/>
<g transform="matrix(7.3982 0 0 7.3982 499.9999 500)" id="201688">
<path style="stroke: none; stroke-width: 1; stroke-dasharray: none; stroke-linecap: butt; stroke-dashoffset: 0; stroke-linejoin: miter; stroke-miterlimit: 4; is-custom-font: none; font-file-url: none; fill: rgb(0,146,69); fill-rule: evenodd; opacity: 1;" vector-effect="non-scaling-stroke" transform=" translate(-61.44, -57.0012)" d="M 18.69 73.37 L 59.18 32.86 c 2.14 -2.14 2.41 -2.23 4.63 0 l 40.38 40.51 V 114 h -30 V 86.55 a 3.38 3.38 0 0 0 -3.37 -3.37 H 52.08 a 3.38 3.38 0 0 0 -3.37 3.37 V 114 h -30 V 73.37 Z M 60.17 0.88 L 0 57.38 l 14.84 7.79 l 42.5 -42.86 c 3.64 -3.66 3.68 -3.74 7.29 -0.16 l 43.41 43 l 14.84 -7.79 L 62.62 0.79 c -1.08 -1 -1.24 -1.13 -2.45 0.09 Z" stroke-linecap="round"/>
</g>
</svg>