<svg xmlns="http://www.w3.org/2000/svg" xmlns:xlink="http://www.w3.org/1999/xlink" version="1.1" width="1000" height="1000" viewBox="0 0 1000 1000" xml:space="preserve">
<desc>Created with Fabric.js 3.5.0</desc>
<defs>
</defs>
<rect x="0" y="0" width="100%" height="100%" fill="#ffffff"/>
<g transform="matrix(7.3958 0 0 7.3958 500.0005 500.0005)" id="437685">
<path style="stroke: none; stroke-width: 1; stroke-dasharray: none; stroke-linecap: butt; stroke-dashoffset: 0; stroke-linejoin: miter; stroke-miterlimit: 4; is-custom-font: none; font-file-url: none; fill: rgb(0,146,69); fill-rule: evenodd; opacity: 1;" vector-effect="non-scaling-stroke" transform=" translate(-61.46, -51.2)" d="M 35.37 0 h 86 a 1.56 1.56 0 0 1 1.55 1.55 V 20.21 a 1.58 1.58 0 0 1 -1.55 1.54 h -86 a 1.56 1.56 0 0 1 -1.54 -1.54 V 1.55 A 1.54 1.54 0 0 1 35.37 0 Z m 0 80.65 h 86 a 1.56 1.56 0 0 1 1.55 1.54 v 18.67 a 1.58 1.58 0 0 1 -1.55 1.54 h -86 a 1.56 1.56 0 0 1 -1.54 -1.54 V 82.19 a 1.54 1.54 0 0 1 1.54 -1.54 Z m -33.82 0 h 16 a 1.56 1.56 0 0 1 1.55 1.54 v 18.67 a 1.58 1.58 0 0 1 -1.55 1.54 h -16 A 1.56 1.56 0 0 1 0 100.86 V 82.19 a 1.54 1.54 0 0 1 1.55 -1.54 Z M 35.37 62.08 h 86 a 1.56 1.56 0 0 0 1.55 -1.55 V 41.87 a 1.58 1.58 0 0 0 -1.55 -1.55 h -86 a 1.57 1.57 0 0 0 -1.54 1.55 V 60.53 a 1.55 1.55 0 0 0 1.54 1.55 Z m -33.82 0 h 16 a 1.56 1.56 0 0 0 1.55 -1.55 V 41.87 a 1.58 1.58 0 0 0 -1.55 -1.55 h -16 A 1.57 1.57 0 0 0 0 41.87 V 60.53 a 1.55 1.55 0 0 0 1.55 1.55 Z M 1.55 0 h 16 A 1.56 1.56 0 0 1 19.1 1.55 V 20.21 a 1.58 1.58 0 0 1 -1.55 1.54 h -16 A 1.56 1.56 0 0 1 0 20.21 V 1.55 A 1.54 1.54 0 0 1 1.55 0 Z" stroke-linecap="round"/>
</g>
</svg>