<svg xmlns="http://www.w3.org/2000/svg" xmlns:xlink="http://www.w3.org/1999/xlink" version="1.1" width="1000" height="1000" viewBox="0 0 1000 1000" xml:space="preserve">
<desc>Created with Fabric.js 3.5.0</desc>
<defs>
</defs>
<rect x="0" y="0" width="100%" height="100%" fill="#ffffff"/>
<g transform="matrix(7.398 0 0 7.398 500.0015 500.002)" id="533013">
<path style="stroke: none; stroke-width: 1; stroke-dasharray: none; stroke-linecap: butt; stroke-dashoffset: 0; stroke-linejoin: miter; stroke-miterlimit: 4; is-custom-font: none; font-file-url: none; fill: rgb(0,146,69); fill-rule: evenodd; opacity: 1;" vector-effect="non-scaling-stroke" transform=" translate(-46.267, -61.4404)" d="M 46.27 18.21 A 28.62 28.62 0 1 1 17.64 46.83 A 28.62 28.62 0 0 1 46.27 18.21 Z m 1.36 97.49 A 82.87 82.87 0 0 0 64 101.81 A 85.44 85.44 0 0 0 84.56 62.23 c 2.81 -13.67 1.5 -27 -4.75 -37.34 a 36.74 36.74 0 0 0 -6.63 -8.06 C 65.62 9.93 57 6.64 48.23 6.56 C 39.07 6.49 29.77 10 21.55 16.5 a 38.54 38.54 0 0 0 -8.63 9.56 C 7.15 35.15 5.41 46.43 7.31 58.24 c 1.94 12 7.66 24.61 16.77 36 A 102.46 102.46 0 0 0 47.63 115.7 Z m 21.24 -9.46 a 89.32 89.32 0 0 1 -19.33 16 a 3.28 3.28 0 0 1 -3.71 0.13 a 109.25 109.25 0 0 1 -26.9 -24 c -9.8 -12.31 -16 -26 -18.1 -39.1 C -1.33 45.89 0.7 33 7.36 22.53 a 45.3 45.3 0 0 1 10.1 -11.18 C 26.85 3.87 37.6 -0.09 48.29 0 C 58.6 0.09 68.79 3.92 77.6 12 a 43.1 43.1 0 0 1 7.82 9.52 c 7.15 11.8 8.71 26.83 5.57 42.05 a 92.2 92.2 0 0 1 -22.12 42.7 Z M 48.79 28.35 c 0.37 0 0.74 0.12 1.11 0.19 a 19 19 0 0 1 3.49 1.06 a 18.2 18.2 0 0 1 3.23 1.73 a 18.71 18.71 0 0 1 5.15 5.14 A 18.92 18.92 0 0 1 63.5 39.7 l 0 0.07 a 18.34 18.34 0 0 1 1 3.43 c 0.07 0.36 0.14 0.74 0.19 1.11 h 3.07 a 1.27 1.27 0 0 1 1.27 1.26 v 2.52 a 1.28 1.28 0 0 1 -1.27 1.26 H 64.75 c 0 0.37 -0.12 0.75 -0.19 1.11 A 18.88 18.88 0 0 1 63.5 54 a 18.91 18.91 0 0 1 -4 6 h 0 a 19.11 19.11 0 0 1 -6.05 4 l -0.07 0 a 18.34 18.34 0 0 1 -3.43 1 c -0.37 0.08 -0.74 0.14 -1.11 0.19 v 3.08 a 1.28 1.28 0 0 1 -1.27 1.26 H 45 a 1.27 1.27 0 0 1 -1.26 -1.26 V 65.31 c -0.38 0 -0.75 -0.11 -1.12 -0.19 A 18.86 18.86 0 0 1 33.08 60 a 19.41 19.41 0 0 1 -2.32 -2.84 A 17.77 17.77 0 0 1 29 54 A 18.18 18.18 0 0 1 28 50.46 c -0.07 -0.36 -0.13 -0.74 -0.18 -1.11 H 24.71 a 1.27 1.27 0 0 1 -1.26 -1.26 V 45.57 a 1.27 1.27 0 0 1 1.26 -1.26 h 3.08 c 0.05 -0.37 0.11 -0.75 0.18 -1.11 A 18.18 18.18 0 0 1 29 39.7 a 17.77 17.77 0 0 1 1.72 -3.22 a 19.41 19.41 0 0 1 2.32 -2.84 a 19 19 0 0 1 6.06 -4 l 0.07 0 a 18.24 18.24 0 0 1 3.42 -1 c 0.37 -0.07 0.74 -0.14 1.12 -0.19 V 25.27 A 1.27 1.27 0 0 1 45 24 h 2.51 a 1.27 1.27 0 0 1 1.27 1.26 v 3.08 Z M 46.27 42.06 a 4.77 4.77 0 1 1 -4.78 4.77 a 4.77 4.77 0 0 1 4.78 -4.77 Z m 13.54 7.29 c -5.65 0 -5.65 -5 0 -5 q -0.08 -0.42 -0.18 -0.84 a 13.46 13.46 0 0 0 -0.77 -2.24 l 0 -0.06 A 12.64 12.64 0 0 0 57.64 39 a 14.61 14.61 0 0 0 -1.63 -2 a 14.2 14.2 0 0 0 -1.95 -1.62 a 13.91 13.91 0 0 0 -2.2 -1.23 a 13.57 13.57 0 0 0 -2.25 -0.77 l -0.82 -0.18 c 0 5.66 -5 5.66 -5 0 l -0.84 0.19 a 13.11 13.11 0 0 0 -2.24 0.76 a 14.37 14.37 0 0 0 -2.2 1.23 l -0.07 0 A 14.24 14.24 0 0 0 34.89 39 a 13.39 13.39 0 0 0 -2 4.44 c -0.07 0.28 -0.13 0.55 -0.18 0.83 c 5.66 0 5.65 5 0 5 q 0.08 0.42 0.18 0.84 a 14.09 14.09 0 0 0 0.77 2.24 h 0 a 15 15 0 0 0 1.23 2.2 a 13.59 13.59 0 0 0 1.63 1.95 a 13.92 13.92 0 0 0 4.14 2.85 l 0.08 0 a 13.83 13.83 0 0 0 2.17 0.73 l 0 0 c 0.26 0.06 0.52 0.12 0.78 0.16 c 0 -5.66 5 -5.66 5 0 l 0.84 -0.19 a 13.16 13.16 0 0 0 2.24 -0.77 h 0 A 13.8 13.8 0 0 0 56 56.58 a 13.8 13.8 0 0 0 2.85 -4.15 l 0 -0.06 a 14.58 14.58 0 0 0 0.74 -2.2 c 0.06 -0.27 0.12 -0.54 0.17 -0.82 Z" stroke-linecap="round"/>
</g>
</svg>