<svg xmlns="http://www.w3.org/2000/svg" xmlns:xlink="http://www.w3.org/1999/xlink" version="1.1" width="1000" height="1000" viewBox="0 0 1000 1000" xml:space="preserve">
<desc>Created with Fabric.js 3.5.0</desc>
<defs>
</defs>
<rect x="0" y="0" width="100%" height="100%" fill="#ffffff"/>
<g transform="matrix(1.775 0 0 1.775 500.0053 500.0054)" id="218044">
<path style="stroke: none; stroke-width: 1; stroke-dasharray: none; stroke-linecap: butt; stroke-dashoffset: 0; stroke-linejoin: miter; stroke-miterlimit: 4; is-custom-font: none; font-file-url: none; fill: rgb(0,146,69); fill-rule: evenodd; opacity: 1;" vector-effect="non-scaling-stroke" transform=" translate(-248.9984, -256.085)" d="M 232.21 0 c 86.9 55.08 165.4 81.14 232.78 74.98 c 3.67 74.22 -2.36 138.96 -17.12 194.7 c -10 -4.08 -20.68 -6.52 -31.7 -7 c 11.57 -46.07 16.23 -99.25 13.23 -159.92 c -57.04 5.22 -123.5 -16.84 -197.06 -63.48 C 168.68 88.73 103 103.21 36.04 99.7 c -2.97 113.09 16.9 198.24 55.29 260.18 c 28.38 -23.73 76.71 -20.15 99.6 -51.62 c 1.65 -2.43 2.41 -3.74 2.39 -4.81 c -0.01 -0.56 -24.83 -31 -27.06 -34.55 c -5.85 -9.3 -16.8 -21.93 -16.8 -32.82 c 0 -6.15 4.85 -14.17 11.8 -15.96 c -0.54 -9.22 -0.91 -18.57 -0.91 -27.84 c 0 -5.47 0.1 -11.01 0.3 -16.43 c 0.3 -3.44 0.94 -4.95 1.85 -8.27 a 58.537 58.537 0 0 1 26.13 -33.18 c 4.43 -2.8 9.25 -4.98 14.19 -6.77 c 8.96 -3.27 4.62 -17.43 14.46 -17.65 c 22.99 -0.59 60.81 19.51 75.54 35.48 c 9.39 10.38 14.75 21.92 15.07 35.92 l -0.93 40.27 c 4.08 1 8.66 4.19 9.66 8.28 c 3.15 12.71 -10.04 28.53 -16.18 38.64 c -5.65 9.33 -27.26 34.79 -27.28 35 c -0.1 1.09 0.46 2.47 1.94 4.69 c 10.53 14.48 26.44 21.54 43.3 27.25 c -1.87 6.71 -3.07 13.64 -3.53 20.74 c -1.76 1.23 -3.4 2.6 -4.91 4.11 l -0.1 0.1 c -6.73 6.75 -10.93 16.04 -10.93 26.26 v 93.19 c -20.32 12.65 -42.28 23.4 -65.81 32.26 C 82.71 457.27 -6.26 322.77 0.34 71.37 C 79.43 75.51 157.03 58.41 232.21 0 z m 105.67 375.54 h 3.88 v -11.95 c 0 -19.96 7.87 -38.16 20.55 -51.39 c 12.79 -13.33 30.44 -21.6 49.88 -21.6 s 37.11 8.27 49.88 21.6 c 12.69 13.23 20.56 31.42 20.56 51.39 v 11.95 h 3.88 c 6.32 0 11.49 5.18 11.49 11.5 v 113.63 c 0 6.33 -5.17 11.5 -11.49 11.5 H 337.88 c -6.33 0 -11.49 -5.17 -11.49 -11.5 V 387.04 c -0.01 -6.32 5.16 -11.5 11.49 -11.5 z m 65.2 73.48 l -11.96 31.34 h 42.13 l -11.08 -31.77 c 7.04 -3.62 11.85 -10.95 11.85 -19.41 c 0 -12.06 -9.77 -21.82 -21.84 -21.82 c -12.05 0 -21.82 9.76 -21.82 21.82 c 0 8.8 5.21 16.38 12.72 19.84 z m -39.57 -73.48 h 97.35 v -11.95 c 0 -14.2 -5.53 -27.06 -14.43 -36.34 c -8.81 -9.19 -20.93 -14.9 -34.24 -14.9 c -13.31 0 -25.44 5.71 -34.24 14.9 c -8.91 9.28 -14.44 22.14 -14.44 36.34 v 11.95 z" stroke-linecap="round"/>
</g>
</svg>