<svg xmlns="http://www.w3.org/2000/svg" xmlns:xlink="http://www.w3.org/1999/xlink" version="1.1" width="1000" height="1000" viewBox="0 0 1000 1000" xml:space="preserve">
<desc>Created with Fabric.js 3.5.0</desc>
<defs>
</defs>
<rect x="0" y="0" width="100%" height="100%" fill="#ffffff"/>
<g transform="matrix(7.3954 0 0 7.3954 500.0021 500.0021)" id="648027">
<path style="stroke: none; stroke-width: 1; stroke-dasharray: none; stroke-linecap: butt; stroke-dashoffset: 0; stroke-linejoin: miter; stroke-miterlimit: 4; is-custom-font: none; font-file-url: none; fill: rgb(0,146,69); fill-rule: nonzero; opacity: 1;" vector-effect="non-scaling-stroke" transform=" translate(-61.4601, -61.4631)" d="M 61.44 0 A 61.46 61.46 0 1 1 18 18 A 61.21 61.21 0 0 1 61.44 0 Z m 5.18 62.2 a 5.24 5.24 0 1 1 -8.34 -4.94 V 41.09 a 2.11 2.11 0 0 1 -2.12 -3.35 l 3.6 -4.66 a 2.07 2.07 0 0 1 1.65 -0.82 h 0.06 a 2.07 2.07 0 0 1 1.65 0.82 l 3.6 4.66 a 2.11 2.11 0 0 1 -2.12 3.35 v 15 l 9.55 -4.94 a 2.11 2.11 0 0 1 2 -3.42 L 82 48.9 a 2.09 2.09 0 0 1 1.64 1.53 h 0 v 0 h 0 a 2.17 2.17 0 0 1 -0.14 1.41 l -2.55 5.31 A 2.11 2.11 0 0 1 77 56.85 L 66.62 62.2 Z m 37.26 6.35 A 7.14 7.14 0 0 1 101 68 a 4.83 4.83 0 0 1 -2 -1.56 a 3.84 3.84 0 0 1 -0.73 -2.29 H 102 a 1.25 1.25 0 0 0 0.25 0.72 a 1.68 1.68 0 0 0 0.66 0.49 a 2.61 2.61 0 0 0 1 0.17 a 2.25 2.25 0 0 0 0.92 -0.18 a 1.59 1.59 0 0 0 0.62 -0.52 a 1.33 1.33 0 0 0 0.22 -0.76 a 1.1 1.1 0 0 0 -0.26 -0.74 a 1.62 1.62 0 0 0 -0.72 -0.51 a 3 3 0 0 0 -1.08 -0.18 H 102.2 V 60 h 1.41 a 2.57 2.57 0 0 0 1 -0.18 a 1.52 1.52 0 0 0 0.67 -0.51 a 1.13 1.13 0 0 0 0.23 -0.74 a 1.25 1.25 0 0 0 -0.19 -0.72 a 1.41 1.41 0 0 0 -0.57 -0.48 a 1.84 1.84 0 0 0 -0.83 -0.18 a 2.25 2.25 0 0 0 -0.92 0.18 a 1.53 1.53 0 0 0 -0.63 0.51 a 1.36 1.36 0 0 0 -0.24 0.74 H 98.53 a 3.8 3.8 0 0 1 0.7 -2.24 a 4.61 4.61 0 0 1 1.9 -1.53 a 7.31 7.31 0 0 1 5.49 0 a 4.48 4.48 0 0 1 1.85 1.43 a 3.44 3.44 0 0 1 0.66 2.08 a 2.42 2.42 0 0 1 -0.8 1.9 a 3.46 3.46 0 0 1 -2 0.88 v 0.11 a 4.12 4.12 0 0 1 2.52 1 a 2.83 2.83 0 0 1 0.83 2.12 a 3.39 3.39 0 0 1 -0.73 2.15 a 4.73 4.73 0 0 1 -2 1.47 a 7.79 7.79 0 0 1 -3 0.54 Z M 19 54.3 a 6.92 6.92 0 0 1 2.29 0.38 a 5.25 5.25 0 0 1 1.92 1.21 A 5.67 5.67 0 0 1 24.52 58 A 9.44 9.44 0 0 1 25 61.25 a 10.38 10.38 0 0 1 -0.43 3.06 a 6.87 6.87 0 0 1 -1.22 2.31 a 5.27 5.27 0 0 1 -1.9 1.45 a 5.84 5.84 0 0 1 -2.47 0.51 a 5.9 5.9 0 0 1 -2.7 -0.59 a 4.85 4.85 0 0 1 -1.85 -1.58 a 4.64 4.64 0 0 1 -0.81 -2.21 h 3.71 a 1.29 1.29 0 0 0 0.59 0.91 a 2.07 2.07 0 0 0 1.06 0.28 a 1.82 1.82 0 0 0 1.73 -1 a 5.78 5.78 0 0 0 0.56 -2.75 h -0.08 a 2.76 2.76 0 0 1 -0.8 1.09 a 3.75 3.75 0 0 1 -1.24 0.69 a 4.37 4.37 0 0 1 -1.5 0.25 a 4.22 4.22 0 0 1 -2.2 -0.57 A 3.85 3.85 0 0 1 14 61.51 a 5.18 5.18 0 0 1 0.18 -4.86 a 4.69 4.69 0 0 1 1.95 -1.73 A 6.47 6.47 0 0 1 19 54.3 Z m 0 2.84 a 2 2 0 0 0 -1 0.26 a 1.76 1.76 0 0 0 -0.68 0.7 a 1.89 1.89 0 0 0 -0.24 1 a 1.93 1.93 0 0 0 0.24 1 a 1.83 1.83 0 0 0 0.68 0.7 a 2 2 0 0 0 1 0.26 a 1.87 1.87 0 0 0 0.76 -0.15 a 1.94 1.94 0 0 0 0.6 -0.41 a 2.08 2.08 0 0 0 0.41 -0.63 a 2.22 2.22 0 0 0 0.15 -0.79 a 2 2 0 0 0 -0.26 -1 a 1.83 1.83 0 0 0 -0.68 -0.7 a 1.91 1.91 0 0 0 -1 -0.26 Z m 42.64 51.14 a 7 7 0 0 1 -2.3 -0.38 a 5.09 5.09 0 0 1 -1.91 -1.21 a 5.52 5.52 0 0 1 -1.31 -2.15 a 9.44 9.44 0 0 1 -0.48 -3.21 a 10.38 10.38 0 0 1 0.43 -3.06 A 6.74 6.74 0 0 1 57.33 96 a 5.3 5.3 0 0 1 1.9 -1.46 a 5.94 5.94 0 0 1 2.46 -0.5 a 5.76 5.76 0 0 1 2.69 0.59 a 4.88 4.88 0 0 1 1.86 1.58 a 4.64 4.64 0 0 1 0.81 2.21 H 63.34 a 1.29 1.29 0 0 0 -0.59 -0.91 a 2 2 0 0 0 -1.06 -0.28 a 1.83 1.83 0 0 0 -1.73 1 A 6 6 0 0 0 59.4 101 h 0.08 a 2.83 2.83 0 0 1 0.8 -1.09 a 3.75 3.75 0 0 1 1.24 -0.69 A 4.63 4.63 0 0 1 63 99 a 4.17 4.17 0 0 1 2.2 0.57 a 3.94 3.94 0 0 1 1.47 1.56 a 4.73 4.73 0 0 1 0.52 2.25 a 4.81 4.81 0 0 1 -0.7 2.61 a 4.72 4.72 0 0 1 -2 1.73 a 6.42 6.42 0 0 1 -2.88 0.61 Z m 0 -2.84 a 2 2 0 0 0 1 -0.25 a 1.79 1.79 0 0 0 0.68 -0.71 a 2 2 0 0 0 0.24 -1 a 2 2 0 0 0 -0.24 -1 a 1.83 1.83 0 0 0 -0.68 -0.7 a 2 2 0 0 0 -1 -0.26 a 2.06 2.06 0 0 0 -0.76 0.15 a 1.94 1.94 0 0 0 -0.6 0.41 a 1.91 1.91 0 0 0 -0.41 0.63 a 2.06 2.06 0 0 0 -0.15 0.79 a 2 2 0 0 0 0.26 1 a 1.86 1.86 0 0 0 0.68 0.71 a 1.88 1.88 0 0 0 1 0.25 Z m -0.75 -77.08 v -2.7 l 5.16 -4.27 a 10.43 10.43 0 0 0 0.88 -0.8 a 3 3 0 0 0 0.57 -0.77 a 2 2 0 0 0 0.2 -0.89 a 1.64 1.64 0 0 0 -0.23 -0.91 a 1.53 1.53 0 0 0 -0.62 -0.59 a 2.17 2.17 0 0 0 -1.84 0 a 1.44 1.44 0 0 0 -0.61 0.61 a 2.13 2.13 0 0 0 -0.21 1 H 60.62 a 4.66 4.66 0 0 1 0.65 -2.52 a 4.36 4.36 0 0 1 1.85 -1.62 a 6.5 6.5 0 0 1 2.81 -0.57 a 7.22 7.22 0 0 1 2.88 0.53 a 4.31 4.31 0 0 1 1.89 1.49 a 3.87 3.87 0 0 1 0.66 2.25 A 4.08 4.08 0 0 1 71 20.19 a 6.67 6.67 0 0 1 -1.19 1.74 A 23.13 23.13 0 0 1 67.4 24.2 l -1.29 1.08 v 0.08 h 5.4 v 3 Z M 58.24 14.52 V 28.36 H 54.48 V 18 H 54.4 l -3 1.81 V 16.6 l 3.41 -2.08 Z m -25 11.85 a 2.27 2.27 0 0 1 3.94 -2.26 l 1.88 3.27 a 2.27 2.27 0 1 1 -3.93 2.26 l -1.89 -3.27 Z M 20 41.76 a 2.28 2.28 0 0 1 2.28 -3.94 l 3.28 1.89 a 2.28 2.28 0 0 1 -2.29 3.94 L 20 41.76 Z m 4.31 45.33 a 2.27 2.27 0 0 1 -2.27 -3.94 l 3.27 -1.89 a 2.27 2.27 0 0 1 2.27 3.94 l -3.27 1.89 Z m 15.39 13.73 a 2.28 2.28 0 0 1 -3.94 -2.29 l 1.89 -3.27 a 2.28 2.28 0 0 1 3.94 2.28 l -1.89 3.28 Z m 47.36 -2.28 a 2.27 2.27 0 0 1 -3.94 2.27 l -1.89 -3.27 a 2.27 2.27 0 0 1 3.94 -2.27 l 1.89 3.27 Z m 13.73 -15.39 a 2.28 2.28 0 0 1 -2.29 3.94 L 95.26 85.2 a 2.28 2.28 0 0 1 2.28 -3.94 l 3.28 1.89 Z m -0.24 -45.32 a 2.27 2.27 0 1 1 2.26 3.93 l -3.27 1.89 a 2.27 2.27 0 0 1 -2.27 -3.94 l 3.28 -1.88 Z M 85.88 24.16 a 2.28 2.28 0 0 1 3.94 2.28 l -1.89 3.27 A 2.28 2.28 0 0 1 84 27.43 l 1.89 -3.27 Z m 14.67 -1.83 a 55.31 55.31 0 1 0 16.2 39.11 a 55.14 55.14 0 0 0 -16.2 -39.11 Z" stroke-linecap="round"/>
</g>
</svg>